<svg width="195" height="221" viewBox="0 0 195 221" fill="none" xmlns="http://www.w3.org/2000/svg">
<g opacity="0.2">
<path d="M71.2655 85.4535C64.2793 75.0006 66.7624 60.0166 80.4903 57.5337C93.335 55.2112 101.351 65.7529 102.948 77.409C105.188 93.7595 92.297 103.245 77.8305 108.079C57.2394 114.959 35.1032 111.005 18.134 97.6488C15.5013 95.5755 18.9065 91.6555 21.5258 93.7167C40.1868 108.405 71.2353 112.013 90.3043 95.5304C97.4385 89.3634 99.6421 83.7256 97.1599 74.6735C96.2056 71.1979 94.6684 67.3088 91.718 65.0415C81.1665 56.9309 68.1242 71.4101 75.5541 82.5273C77.4125 85.3054 73.1223 88.2322 71.2655 85.4535Z" fill="#FF7F3E"/>
<path d="M115.347 74.157C113.131 75.9412 109.057 74.2859 108.991 71.0637C108.984 70.9958 108.948 70.9492 108.945 70.8801C108.796 68.1608 105.777 65.7935 104.401 63.596C103.283 61.8074 102.402 59.7638 102.331 57.629C102.186 53.2483 105.51 48.5714 110.379 49.74C119.239 51.8666 118.352 65.1921 116.622 71.9364C116.495 72.9475 116.042 73.6955 115.347 74.157Z" fill="#FF7F3E"/>
<path d="M123.53 84.3292C122.394 86.9364 125.065 90.4316 128.191 89.6432C128.257 89.6316 128.313 89.6549 128.38 89.6411C131.043 89.0671 134.123 91.3543 136.605 92.1017C138.625 92.7099 140.829 93.0203 142.907 92.5247C147.17 91.5092 150.806 87.0706 148.394 82.68C144.005 74.6946 131.385 79.0639 125.337 82.5136C124.394 82.9032 123.792 83.5358 123.53 84.3292Z" fill="#FF7F3E"/>
<path d="M120.941 83.822C126.927 74.9677 135.748 68.7861 142.478 60.5821C146.524 55.6523 153.369 45.9737 147.06 40.0998C140.953 34.4149 133.667 42.0136 130.864 47.3044C128.361 52.0308 127.022 57.3409 124.791 62.2016C122.105 68.0489 118.817 73.5243 115.042 78.7326C113.377 81.0299 114.571 83.6769 116.449 84.7791C117.873 85.6762 119.702 85.6516 120.941 83.822Z" fill="#FF7F3E"/>
<path d="M58.8666 93.4442C58.9743 93.2411 59.0461 93.0356 59.1029 92.813C59.1518 92.6485 59.1869 92.4924 59.2087 92.3242C59.2126 92.2656 59.2144 92.2115 59.2151 92.154C59.2687 91.2972 58.9586 90.4727 58.1627 90.0362C45.4634 77.3647 49.907 57.4726 38.0347 44.8595C31.7316 38.1635 22.8844 35.9771 15.1144 41.7543C3.93812 50.0632 7.31689 65.6246 14.5579 75.4196C24.338 88.6479 40.2832 92.9827 55.8616 94.7802C57.0396 95.2539 58.2339 94.5677 58.829 93.507C58.8404 93.4864 58.8541 93.467 58.8666 93.4442ZM36.4512 85.1335C37.8584 84.7882 39.2553 84.4075 40.6452 83.985C41.8801 85.1963 43.1073 86.4122 44.407 87.5699C41.6883 86.9278 39.0264 86.1277 36.4512 85.1335ZM32.4388 83.3833C30.0361 82.1916 27.7502 80.7696 25.6063 79.0884C28.5778 78.835 31.4988 78.3534 34.2912 77.2214C35.6486 78.8118 37.0306 80.3828 38.4891 81.8961C36.4927 82.4674 34.4781 82.9747 32.4388 83.3833ZM18.8405 72.163C22.2533 72.1038 25.5669 71.4581 28.7637 70.1968C29.9594 71.8703 31.2369 73.4864 32.5314 75.0873C29.4264 76.1639 26.1892 76.4824 22.8946 76.6766C22.3243 76.1277 21.7202 75.6366 21.1776 75.0394C20.4048 74.1905 19.6134 73.2224 18.8405 72.163ZM20.0391 55.5857C20.0517 55.5796 20.0577 55.5701 20.0704 55.564C20.8959 57.2406 21.7742 58.8825 22.6821 60.5032C19.8377 61.823 16.8902 62.4375 13.7871 62.409C13.1919 60.5205 12.8147 58.5998 12.7781 56.7194C15.2705 56.933 17.7026 56.5985 20.0391 55.5857ZM23.7311 62.8753C23.8153 62.8354 23.8662 62.7736 23.9354 62.7222C24.9944 64.509 26.1204 66.2489 27.2811 67.9659C24.0053 69.1638 20.6496 69.7187 17.1324 69.592C16.2424 68.1425 15.4147 66.5995 14.7312 64.9924C17.85 64.9158 20.8809 64.2321 23.7311 62.8753ZM16.4678 47.3924C17.2471 49.3656 18.0754 51.3091 18.9575 53.2157C17.021 54.0157 15.044 54.3309 12.9794 54.1425C13.3751 51.6856 14.4438 49.3711 16.4678 47.3924ZM50.3486 88.7627C50.151 88.7307 49.9524 88.6953 49.7543 88.6616C35.5768 77.093 25.161 62.7419 18.592 45.7063C23.3249 42.5836 28.4556 43.3394 32.751 46.9078C39.9983 52.9258 40.5577 62.8933 42.8032 71.3838C44.5206 77.8742 46.718 83.6203 50.3486 88.7627Z" fill="#FF7F3E"/>
<path d="M112.916 126.419C122.048 135.06 137.235 135.13 141.987 122.013C146.434 109.742 137.387 100.068 126.164 96.5371C110.421 91.5845 98.9081 102.7 91.7143 116.148C81.4742 135.293 81.6567 157.778 91.9727 176.749C93.574 179.692 98.0109 176.994 96.418 174.064C85.0719 153.202 86.7266 121.988 106.179 105.958C113.456 99.9595 119.386 98.7336 127.892 102.702C131.159 104.226 134.735 106.396 136.474 109.684C142.698 121.447 126.234 131.873 116.522 122.681C114.094 120.382 110.488 124.12 112.916 126.419Z" fill="#FF7F3E"/>
<path d="M102.89 137.325C101.744 137.734 100.869 138.795 101.137 140.037C100.294 155.694 101.889 172.142 113.288 184.003C121.728 192.787 136.501 198.73 146.568 189.107C153.567 182.418 152.897 173.328 147.355 165.991C136.914 152.169 116.559 153.211 106.198 138.563C105.901 137.707 105.141 137.262 104.286 137.17C104.229 137.16 104.175 137.153 104.117 137.147C103.948 137.138 103.789 137.147 103.619 137.168C103.391 137.187 103.174 137.224 102.957 137.297C102.933 137.307 102.913 137.318 102.89 137.325ZM106.319 152.539C107.242 154.016 108.235 155.43 109.222 156.85C108.573 158.149 107.962 159.463 107.386 160.792C106.838 158.086 106.497 155.328 106.319 152.539ZM110.921 159.325C112.168 161.016 113.485 162.642 114.823 164.248C113.236 166.812 112.272 169.61 111.524 172.498C110.227 170.102 109.21 167.61 108.438 165.042C109.183 163.1 110.021 161.199 110.921 159.325ZM114.772 177.544C114.276 176.909 113.892 176.232 113.447 175.577C114.192 172.362 115.049 169.224 116.633 166.343C117.995 167.89 119.373 169.42 120.822 170.879C119.042 173.818 117.848 176.976 117.217 180.33C116.302 179.39 115.479 178.447 114.772 177.544ZM131.422 188.9C129.574 188.548 127.746 187.852 125.983 186.949C126.475 183.885 127.577 181.082 129.355 178.499C130.8 179.666 132.271 180.808 133.784 181.903C133.777 181.915 133.766 181.919 133.757 181.931C132.368 184.066 131.631 186.405 131.422 188.9ZM123.595 185.584C122.125 184.64 120.743 183.566 119.463 182.445C119.928 178.956 121.04 175.743 122.771 172.714C124.268 174.146 125.794 175.549 127.378 176.892C127.318 176.951 127.248 176.992 127.193 177.068C125.377 179.649 124.193 182.522 123.595 185.584ZM133.995 189.133C134.156 187.065 134.8 185.17 135.913 183.396C137.645 184.586 139.42 185.729 141.235 186.829C138.946 188.49 136.485 189.158 133.995 189.133ZM122.008 156.838C130.001 160.477 139.733 162.702 144.449 170.857C147.245 175.693 147.13 180.877 143.256 185.017C127.564 175.681 115.166 163.005 106.142 147.085C106.142 146.884 106.141 146.683 106.141 146.483C110.601 150.926 115.897 154.056 122.008 156.838Z" fill="#FF7F3E"/>
</g>
</svg>
