<svg width="133" height="223" viewBox="0 0 133 223" fill="none" xmlns="http://www.w3.org/2000/svg">
<g opacity="0.2">
<path d="M102.853 146.671C101.682 159.189 90.3051 169.252 78.0856 162.521C66.6528 156.222 67.0804 142.986 73.1917 132.933C81.7651 118.831 97.7518 119.6 112.027 124.973C132.346 132.619 147.031 149.648 151.777 170.716C152.512 173.985 147.397 174.88 146.665 171.628C141.446 148.46 119.627 126.079 94.4328 126.844C85.0069 127.131 79.7412 130.116 75.9587 138.706C74.5073 142.006 73.2476 145.993 74.1073 149.613C77.1807 162.562 96.4338 159.551 97.6791 146.238C97.9889 142.91 103.164 143.344 102.853 146.671Z" fill="#FF7F3E"/>
<path d="M61.5186 127.637C64.3637 127.65 66.4815 131.504 64.5005 134.046C64.4628 134.103 64.4616 134.162 64.4206 134.218C62.8209 136.422 63.6713 140.164 63.3526 142.736C63.0928 144.83 62.4877 146.971 61.1958 148.672C58.5456 152.164 53.0171 153.697 49.9751 149.719C44.4406 142.481 53.5327 132.699 59.1291 128.557C59.8648 127.852 60.6881 127.557 61.5186 127.637Z" fill="#FF7F3E"/>
<path d="M61.5836 114.582C64.1099 113.276 64.2413 108.879 61.3181 107.519C61.2594 107.486 61.2306 107.433 61.1697 107.401C58.7417 106.167 57.7932 102.449 56.3389 100.304C55.1548 98.5585 53.64 96.9274 51.7149 96.0017C47.7658 94.1009 42.145 95.2525 41.2483 100.181C39.6178 109.146 52.1671 113.714 59.0366 114.852C60.0143 115.144 60.88 115.033 61.5836 114.582Z" fill="#FF7F3E"/>
<path d="M63.2733 116.609C53.0433 119.705 42.2993 118.939 31.9024 121.061C25.6538 122.336 14.2374 125.53 15.4296 134.067C16.5831 142.33 27.0301 141.029 32.5418 138.69C37.465 136.601 41.853 133.324 46.6503 130.96C52.4224 128.116 58.4272 125.94 64.6412 124.279C67.3826 123.546 68.1247 120.738 67.3631 118.699C66.8232 117.105 65.3883 115.97 63.2733 116.609Z" fill="#FF7F3E"/>
<path d="M117.514 148.29C117.303 148.379 117.117 148.494 116.933 148.631C116.791 148.727 116.665 148.826 116.543 148.943C116.503 148.986 116.467 149.027 116.43 149.071C115.848 149.702 115.569 150.538 115.911 151.379C117.775 169.221 101.781 181.856 103.04 199.132C103.709 208.304 109.196 215.58 118.869 215.997C132.783 216.597 139.975 202.39 140.533 190.222C141.285 173.788 131.645 160.368 120.689 149.148C120.074 148.038 118.714 147.817 117.583 148.265C117.561 148.274 117.538 148.28 117.514 148.29ZM129.669 168.876C128.359 168.257 127.035 167.671 125.689 167.122C125.495 165.403 125.309 163.686 125.031 161.968C126.736 164.181 128.297 166.48 129.669 168.876ZM131.679 172.765C132.792 175.205 133.669 177.75 134.272 180.407C131.806 178.729 129.236 177.261 126.355 176.379C126.305 174.288 126.223 172.197 126.045 170.103C127.955 170.919 129.838 171.796 131.679 172.765ZM135.155 190.048C132.469 187.942 129.491 186.353 126.214 185.316C126.342 183.263 126.37 181.203 126.375 179.145C129.463 180.267 132.176 182.062 134.856 183.989C134.952 184.774 135.111 185.537 135.156 186.342C135.22 187.488 135.224 188.739 135.155 190.048ZM123.77 202.157C123.757 202.154 123.746 202.158 123.732 202.154C124.149 200.333 124.503 198.504 124.821 196.674C127.86 197.444 130.535 198.826 132.925 200.805C132.196 202.646 131.278 204.374 130.12 205.857C128.321 204.119 126.222 202.845 123.77 202.157ZM125.502 194.172C125.412 194.15 125.333 194.165 125.247 194.162C125.552 192.107 125.776 190.047 125.958 187.982C129.256 189.119 132.21 190.804 134.859 193.121C134.636 194.807 134.305 196.526 133.822 198.205C131.353 196.297 128.57 194.916 125.502 194.172ZM121.375 210.768C122.014 208.745 122.597 206.715 123.115 204.679C125.122 205.279 126.855 206.281 128.339 207.73C126.482 209.387 124.193 210.509 121.375 210.768ZM121.172 157.295C121.305 157.444 121.437 157.597 121.57 157.748C125.276 175.667 124.309 193.373 118.663 210.737C113.02 210.175 109.515 206.353 108.432 200.875C106.603 191.634 112.456 183.546 116.068 175.54C118.828 169.421 120.747 163.575 121.172 157.295Z" fill="#FF7F3E"/>
<path d="M96.3658 88.6126C94.7286 76.1473 82.9861 66.5147 71.0263 73.6971C59.8363 80.4161 60.7559 93.6283 67.2384 103.447C76.3324 117.219 92.2772 115.854 106.342 109.954C126.362 101.555 140.401 83.9905 144.36 62.7621C144.974 59.4677 139.829 58.7634 139.217 62.0418C134.865 85.3874 113.895 108.568 88.689 108.74C79.2588 108.805 73.8842 106.017 69.7857 97.5724C68.2119 94.3299 66.8048 90.391 67.5285 86.7424C70.1173 73.6886 89.4699 75.9801 91.21 89.239C91.644 92.5539 96.7999 91.9275 96.3658 88.6126Z" fill="#FF7F3E"/>
<path d="M111.025 86.4717C112.172 86.8766 113.52 86.6057 114.095 85.473C124.624 73.8536 133.759 60.0833 132.394 43.6896C131.383 31.5497 123.666 17.6213 109.785 18.7398C100.134 19.517 94.9223 26.9934 94.596 36.1828C93.9821 53.4941 110.435 65.5235 109.238 83.4244C108.928 84.2766 109.237 85.1014 109.843 85.7114C109.881 85.7551 109.919 85.795 109.959 85.836C110.085 85.9493 110.214 86.0434 110.36 86.1341C110.549 86.2631 110.74 86.3707 110.954 86.4513C110.979 86.4587 111.002 86.4633 111.025 86.4717ZM117.958 72.5024C118.173 70.7739 118.295 69.0504 118.425 67.3259C119.747 66.7269 121.05 66.093 122.335 65.4243C121.054 67.8702 119.579 70.2261 117.958 72.5024ZM118.667 64.3341C118.765 62.2351 118.769 60.1425 118.743 58.0517C121.592 57.0628 124.104 55.4999 126.507 53.7306C126.002 56.4081 125.219 58.9831 124.199 61.4635C122.396 62.4999 120.547 63.4471 118.667 64.3341ZM127.168 47.7657C127.153 48.5717 127.023 49.3394 126.956 50.1283C124.35 52.1539 121.706 54.0484 118.66 55.2849C118.578 53.2257 118.474 51.1696 118.27 49.1231C121.505 47.9653 124.423 46.2667 127.028 44.062C127.145 45.3689 127.189 46.6194 127.168 47.7657ZM121.409 28.4533C122.62 29.8911 123.601 31.5843 124.399 33.3969C122.084 35.4646 119.463 36.9446 116.454 37.828C116.068 36.011 115.646 34.1972 115.163 32.3926C115.176 32.388 115.187 32.3922 115.202 32.3883C117.626 31.608 119.673 30.2573 121.409 28.4533ZM125.392 35.9622C125.937 37.6222 126.332 39.3274 126.618 41.0038C124.057 43.4182 121.168 45.2112 117.914 46.4702C117.656 44.4149 117.357 42.3633 116.974 40.3219C117.058 40.314 117.138 40.3264 117.228 40.3021C120.265 39.4439 122.996 37.9611 125.392 35.9622ZM119.559 26.6489C118.13 28.1522 116.435 29.2174 114.452 29.8918C113.859 27.8754 113.202 25.8693 112.487 23.8714C115.312 24.0259 117.642 25.0596 119.559 26.6489ZM108.494 59.2716C104.586 51.4068 98.4365 43.5424 99.9199 34.2388C100.8 28.7228 104.159 24.772 109.777 24.0028C116.066 41.1442 117.693 58.8012 114.656 76.8464C114.529 77.0028 114.403 77.1592 114.277 77.314C113.618 71.0533 111.482 65.2847 108.494 59.2716Z" fill="#FF7F3E"/>
</g>
</svg>
