<svg width="70" height="70" viewBox="0 0 70 70" fill="none" xmlns="http://www.w3.org/2000/svg">
<circle cx="35" cy="35" r="35" fill="#FF7F3E"/>
<g clip-path="url(#clip0_14_142)">
<path d="M34.9416 36.9832C36.0692 36.9832 36.9833 36.0692 36.9833 34.9416C36.9833 33.814 36.0692 32.8999 34.9416 32.8999C33.814 32.8999 32.9 33.814 32.9 34.9416C32.9 36.0692 33.814 36.9832 34.9416 36.9832Z" stroke="white" stroke-width="3" stroke-linecap="round" stroke-linejoin="round"/>
<path d="M45.4617 32.9363C45.1112 30.9479 44.179 29.1081 42.7829 27.6496C41.3868 26.191 39.5895 25.1792 37.6184 24.7421C35.6472 24.305 33.5907 24.4622 31.7089 25.1939C29.8271 25.9256 28.2046 27.1989 27.0464 28.8527C25.8883 30.5065 25.2466 32.4667 25.2025 34.4852C25.1583 36.5038 25.7138 38.4901 26.7985 40.1929C27.8833 41.8958 29.4486 43.2388 31.2967 44.052C33.1447 44.8652 35.1923 45.1122 37.1807 44.7616" stroke="white" stroke-width="3" stroke-linecap="round" stroke-linejoin="round"/>
<path d="M16.8 35.1748C16.8 38.809 17.8777 42.3617 19.8967 45.3834C21.9158 48.4052 24.7856 50.7603 28.1432 52.1511C31.5008 53.5419 35.1954 53.9057 38.7598 53.1967C42.3242 52.4877 45.5983 50.7377 48.1681 48.1679C50.7379 45.5981 52.4879 42.324 53.1969 38.7596C53.9059 35.1952 53.542 31.5006 52.1513 28.143C50.7605 24.7854 48.4053 21.9156 45.3836 19.8966C42.3618 17.8775 38.8092 16.7998 35.175 16.7998" stroke="white" stroke-width="3" stroke-linecap="round" stroke-linejoin="round"/>
</g>
<defs>
<clipPath id="clip0_14_142">
<rect width="49" height="49" fill="white" transform="translate(10.5 10.5)"/>
</clipPath>
</defs>
</svg>
